<svg width="32" height="60" viewBox="0 0 32 60" fill="none" xmlns="http://www.w3.org/2000/svg">
<path d="M24.1305 17.1814V11.7391C24.1305 11.0188 23.5466 10.4348 22.8262 10.4348H21.8479V1.3043C21.8479 0.583945 21.264 0 20.5436 0H12.0654C11.345 0 10.7611 0.583945 10.7611 1.3043V10.4347H9.78277C9.06242 10.4347 8.47848 11.0187 8.47848 11.739V17.1813C3.89797 19.0078 0.652344 23.4879 0.652344 28.712V58.6956C0.652344 59.4159 1.23629 59.9999 1.95664 59.9999H30.6523C31.3727 59.9999 31.9566 59.4159 31.9566 58.6956V28.7121C31.9565 23.4879 28.7109 19.0078 24.1305 17.1814ZM13.3696 2.60871H19.2392V10.4348H13.3696V2.60871ZM11.087 13.0434H21.5217V16.3043H11.087V13.0434ZM29.3478 57.3913H3.26094V28.7121C3.26094 23.3088 7.65676 18.913 13.0599 18.913H19.5488C24.9521 18.913 29.3478 23.3088 29.3478 28.7121V57.3913Z" fill="#F1CDB3"/>
<path d="M24.7827 27.3913H7.82615C7.1058 27.3913 6.52186 27.9752 6.52186 28.6956V52.826C6.52186 53.5464 7.1058 54.1303 7.82615 54.1303H24.7827C25.5031 54.1303 26.087 53.5464 26.087 52.826V44.6287C26.087 43.9084 25.5031 43.3244 24.7827 43.3244C24.0624 43.3244 23.4784 43.9084 23.4784 44.6287V51.5217H9.13057V30H23.4784V34.1287C23.4784 34.8491 24.0624 35.433 24.7827 35.433C25.5031 35.433 26.087 34.8491 26.087 34.1287V28.6957C26.087 27.9752 25.5031 27.3913 24.7827 27.3913Z" fill="#F1CDB3"/>
<path d="M24.7827 38.0645C24.0623 38.0645 23.4784 38.6484 23.4784 39.3688V39.4992C23.4784 40.2195 24.0623 40.8035 24.7827 40.8035C25.503 40.8035 26.087 40.2195 26.087 39.4992V39.3688C26.087 38.6484 25.503 38.0645 24.7827 38.0645Z" fill="#F1CDB3"/>
<path d="M14.9924 41.1512C12.8348 41.1512 11.0794 42.9066 11.0794 45.0642C11.0794 47.2219 12.8348 48.9773 14.9924 48.9773C17.1501 48.9773 18.9054 47.2219 18.9054 45.0642C18.9054 42.9067 17.1501 41.1512 14.9924 41.1512ZM14.9924 46.3687C14.2733 46.3687 13.6881 45.7835 13.6881 45.0644C13.6881 44.3452 14.2733 43.7601 14.9924 43.7601C15.7116 43.7601 16.2967 44.3452 16.2967 45.0644C16.2967 45.7835 15.7117 46.3687 14.9924 46.3687Z" fill="#F1CDB3"/>
<path d="M21.8459 35.9842C21.8459 33.8266 20.0905 32.0712 17.9328 32.0712C15.7752 32.0712 14.0198 33.8266 14.0198 35.9842C14.0198 38.1419 15.7752 39.8973 17.9328 39.8973C20.0904 39.8974 21.8459 38.1419 21.8459 35.9842ZM17.9327 37.2887C17.2135 37.2887 16.6284 36.7035 16.6284 35.9844C16.6284 35.2652 17.2135 34.6801 17.9327 34.6801C18.6519 34.6801 19.237 35.2652 19.237 35.9844C19.237 36.7035 18.6521 37.2887 17.9327 37.2887Z" fill="#F1CDB3"/>
</svg>
