<svg width="57" height="60" viewBox="0 0 57 60" fill="none" xmlns="http://www.w3.org/2000/svg">
<path d="M55.953 19.9663L28.9808 0.226256C28.7799 0.0792462 28.5375 0 28.2886 0C28.0397 0 27.7973 0.0792462 27.5964 0.226256L0.624313 19.9663C0.102126 20.3485 -0.0114291 21.0818 0.370837 21.6041L3.89619 26.4211C3.98704 26.5453 4.10149 26.6504 4.23299 26.7304C4.36449 26.8104 4.51046 26.8637 4.66257 26.8872C4.81467 26.9107 4.96992 26.9041 5.11945 26.8676C5.26897 26.8311 5.40984 26.7655 5.534 26.6745L6.59783 25.8959V58.828C6.59783 59.4751 7.12259 59.9998 7.7697 59.9998H48.8695C49.5166 59.9998 50.0413 59.4751 50.0413 58.828V25.9413L51.0433 26.6745C51.1675 26.7655 51.3083 26.831 51.4578 26.8675C51.6073 26.904 51.7626 26.9106 51.9147 26.8871C52.0667 26.8636 52.2127 26.8103 52.3442 26.7303C52.4757 26.6504 52.5901 26.5453 52.681 26.4211L56.2063 21.6041C56.5887 21.0816 56.4752 20.3485 55.953 19.9663ZM47.6976 53.0856H19.972C19.3249 53.0856 18.8001 53.6103 18.8001 54.2574C18.8001 54.9045 19.3249 55.4293 19.972 55.4293H47.6976V57.6562H8.94146V25.105H36.3847C37.0318 25.105 37.5565 24.5803 37.5565 23.9332C37.5565 23.2861 37.0318 22.7613 36.3847 22.7613H10.8816L28.2886 10.0213L47.6976 24.226V53.0856ZM51.4818 24.0911L28.9808 7.62348C28.78 7.47638 28.5375 7.39712 28.2886 7.39719C28.0397 7.39709 27.7973 7.47636 27.5965 7.62348L5.09537 24.0911L2.95424 21.1654L28.2888 2.62391L53.6233 21.1654L51.4818 24.0911Z" fill="#F1CDB3"/>
<path d="M41.7559 23.7046C41.7406 23.6295 41.7172 23.5557 41.6879 23.4842C41.6586 23.4139 41.6223 23.3459 41.5801 23.2826C41.5379 23.2184 41.4892 23.1587 41.4348 23.1045C41.2145 22.8855 40.9168 22.7621 40.6062 22.761C40.298 22.761 39.9957 22.8864 39.7778 23.1045C39.7239 23.1584 39.6747 23.2182 39.6325 23.2826C39.5904 23.3459 39.554 23.4139 39.5247 23.4842C39.4954 23.5557 39.472 23.6295 39.4579 23.7046C39.4427 23.7796 39.4345 23.8569 39.4345 23.933C39.4345 24.0092 39.4427 24.0866 39.4579 24.1615C39.472 24.2364 39.4954 24.3103 39.5247 24.3818C39.554 24.4523 39.5904 24.5202 39.6325 24.5835C39.6747 24.648 39.7239 24.7076 39.7778 24.7616C39.8318 24.8155 39.8915 24.8648 39.956 24.9069C40.0193 24.949 40.0872 24.9855 40.1587 25.0148C40.229 25.0441 40.3027 25.0675 40.3778 25.0816C40.4528 25.0968 40.5302 25.1049 40.6062 25.1049C40.6824 25.1049 40.7599 25.0968 40.8348 25.0816C40.9099 25.067 40.9834 25.0446 41.0539 25.0148C41.1254 24.9855 41.1934 24.949 41.2566 24.9069C41.3211 24.8648 41.3807 24.8155 41.4348 24.7616C41.4887 24.7077 41.5379 24.648 41.5801 24.5835C41.6223 24.5202 41.6586 24.4523 41.6879 24.3818C41.7172 24.3105 41.7406 24.2365 41.7559 24.1615C41.7711 24.0865 41.778 24.0092 41.778 23.933C41.778 23.8569 41.771 23.7795 41.7559 23.7046Z" fill="#F1CDB3"/>
<path d="M16.8989 54.0281C16.8839 53.9531 16.8616 53.8797 16.8323 53.809C16.803 53.7386 16.7665 53.6695 16.7243 53.6063C16.6819 53.5423 16.6333 53.4826 16.5791 53.4281C16.5252 53.3742 16.4653 53.3262 16.401 53.2828C16.273 53.1978 16.1297 53.1385 15.9791 53.1082C15.8279 53.0777 15.6721 53.0777 15.5209 53.1082C15.4471 53.1234 15.3733 53.1457 15.3018 53.175C15.2315 53.2043 15.1635 53.2406 15.1002 53.2828C15.0358 53.325 14.9759 53.3742 14.9221 53.4281C14.867 53.482 14.819 53.543 14.7756 53.6063C14.6906 53.7342 14.6314 53.8775 14.6011 54.0281C14.5858 54.1043 14.5789 54.1805 14.5789 54.2566C14.5783 54.4106 14.6086 54.5632 14.6678 54.7054C14.6971 54.7758 14.7335 54.8438 14.7756 54.9081C14.819 54.9714 14.867 55.0311 14.9221 55.0862C14.976 55.1403 15.0359 55.1895 15.1002 55.2315C15.1635 55.2737 15.2315 55.3101 15.3018 55.3394C15.3733 55.3686 15.4471 55.3909 15.5209 55.4061C15.5971 55.4214 15.6744 55.4296 15.7506 55.4296C15.9821 55.4286 16.2082 55.3598 16.401 55.2315C16.4653 55.1894 16.525 55.1407 16.5791 55.0862C16.633 55.0311 16.6823 54.9715 16.7243 54.9081C16.8528 54.7151 16.9217 54.4885 16.9224 54.2566C16.9224 54.1805 16.9142 54.1042 16.8989 54.0281Z" fill="#F1CDB3"/>
<path d="M42.8451 30.5741C42.8451 29.5803 42.4553 28.6476 41.7475 27.9481C41.0465 27.2554 40.0879 26.8676 39.1105 26.876C38.8023 26.8793 38.4957 26.9208 38.1978 26.9997C36.0278 27.5554 33.9076 28.2902 31.859 29.1966C30.6891 28.9199 29.491 28.7806 28.2888 28.7813C27.6118 28.7813 26.9288 28.8257 26.2584 28.9133C25.7407 28.9816 25.2268 29.0761 24.7187 29.1966C22.6705 28.2903 20.5506 27.5556 18.3809 26.9999C18.3705 26.997 18.36 26.9942 18.3495 26.9915C17.1962 26.6978 16.0067 26.9619 15.0863 27.7171C14.1662 28.472 13.6748 29.5867 13.738 30.7745C13.8025 31.9938 13.9224 33.2096 14.0974 34.418C14.2545 35.5012 14.4553 36.5776 14.6991 37.6446C14.3363 38.5729 14.0835 39.5405 13.946 40.5276C13.8887 40.9397 13.8599 41.3553 13.8595 41.7714C13.8595 47.0173 18.434 51.2853 24.0571 51.2853H32.5208C35.6029 51.2853 38.4864 50.0035 40.4321 47.7686C42.2151 45.7205 42.9963 43.1486 42.6317 40.5269C42.5533 39.9648 42.4376 39.4085 42.2855 38.8617C42.1703 38.4498 42.0346 38.0438 41.8791 37.6453C42.395 35.3878 42.7163 33.0901 42.8397 30.7777C42.8434 30.7091 42.8451 30.6416 42.8451 30.5741ZM40.4991 30.647L40.4989 30.651C40.3765 32.949 40.0464 35.2312 39.5128 37.4697C39.4547 37.7133 39.4762 37.9692 39.5741 38.1997C39.7527 38.6199 39.904 39.0511 40.0272 39.4907C40.1513 39.937 40.2457 40.391 40.3098 40.8497C40.5795 42.7898 39.995 44.7004 38.6637 46.2296C37.1634 47.9529 34.9243 48.9414 32.5202 48.9414H24.0566C19.726 48.9414 16.2027 45.7249 16.2027 41.7714C16.2027 41.4679 16.2243 41.1574 16.2669 40.8496C16.3942 39.938 16.6417 39.0473 17.0027 38.2007C17.101 37.9699 17.1226 37.7138 17.0645 37.4698C16.7977 36.3508 16.5815 35.2203 16.4163 34.0819C16.2515 32.9439 16.1386 31.799 16.0778 30.6508C16.0546 30.2148 16.2349 29.806 16.5725 29.5289C16.8198 29.326 17.1202 29.2196 17.4295 29.2196C17.5348 29.2196 17.6414 29.2319 17.7472 29.2571L17.7705 29.2633C19.9498 29.8194 22.0756 30.5674 24.1229 31.4985C24.3701 31.6112 24.6489 31.6346 24.9114 31.5646C25.4541 31.4199 26.0056 31.3106 26.5624 31.2372C27.1316 31.1628 27.7123 31.125 28.2881 31.125C29.4358 31.125 30.5717 31.2729 31.6646 31.5646C31.9269 31.6342 32.2053 31.6114 32.4523 31.499C34.507 30.5646 36.6405 29.8145 38.8278 29.2573C38.9279 29.2333 39.0304 29.2207 39.1333 29.2196H39.1486C39.4988 29.2196 39.8448 29.3632 40.0995 29.6149C40.227 29.74 40.3282 29.8892 40.3971 30.0539C40.466 30.2186 40.5013 30.3955 40.5009 30.574C40.501 30.5983 40.5004 30.6224 40.4991 30.647Z" fill="#F1CDB3"/>
<path d="M30.4865 43.5662C29.9209 43.5662 29.4605 43.106 29.4605 42.5403C29.4605 41.8932 28.9359 41.3684 28.2887 41.3684C27.6414 41.3684 27.1168 41.8932 27.1168 42.5403V42.5831C27.1168 43.1487 26.6566 43.609 26.0909 43.609C25.4437 43.609 24.9191 44.1338 24.9191 44.7809C24.9191 45.428 25.4437 45.9528 26.0909 45.9528C26.9417 45.9528 27.7196 45.6356 28.3133 45.1135C28.9203 45.6284 29.6906 45.9107 30.4865 45.9099C31.1336 45.9099 31.6584 45.3851 31.6584 44.738C31.6584 44.0908 31.1336 43.5662 30.4865 43.5662Z" fill="#F1CDB3"/>
<path d="M24.1923 38.1664L22.4516 37.3688C22.2985 37.2985 22.132 37.2621 21.9635 37.2621C21.795 37.2621 21.6285 37.2985 21.4754 37.3688L19.7346 38.1664C19.1462 38.4359 18.8877 39.1314 19.1573 39.7198C19.2214 39.8597 19.3124 39.9856 19.4252 40.0904C19.5379 40.1951 19.6702 40.2766 19.8145 40.3302C19.9587 40.3838 20.1121 40.4085 20.2659 40.4028C20.4197 40.3971 20.5709 40.3612 20.7108 40.2971L21.9634 39.7232L23.216 40.2971C23.804 40.5669 24.4999 40.3082 24.7694 39.7198C25.0392 39.1314 24.7806 38.4358 24.1923 38.1664Z" fill="#F1CDB3"/>
<path d="M36.8427 38.1662L35.102 37.3686C34.9489 37.2983 34.7824 37.262 34.6139 37.262C34.4454 37.262 34.2789 37.2983 34.1258 37.3686L32.3851 38.1662C31.7967 38.4357 31.5382 39.1312 31.8078 39.7196C32.0775 40.3082 32.773 40.5669 33.3613 40.2969L34.6139 39.723L35.8665 40.2969C36.0194 40.3672 36.1856 40.4036 36.3539 40.4036C36.798 40.4036 37.2228 40.1498 37.42 39.7196C37.6896 39.1312 37.4312 38.4357 36.8427 38.1662Z" fill="#F1CDB3"/>
</svg>
