<svg width="48" height="60" viewBox="0 0 48 60" fill="none" xmlns="http://www.w3.org/2000/svg">
<path d="M46.8977 25.4978L41.1427 9.7473V1.42852C41.1427 0.639609 40.503 0 39.7142 0H8.28567C7.49676 0 6.85715 0.639727 6.85715 1.42852V9.74719L1.10196 25.4978C0.419091 27.3636 0.0702062 29.335 0.0712916 31.3219V55.0765C0.0712916 57.7913 2.27992 60 4.99481 60H43.0048C45.7197 60 47.9283 57.7913 47.9283 55.0765V31.3219C47.9283 29.329 47.5816 27.3694 46.8977 25.4978ZM9.71406 2.85715H38.2855V8.57145H9.71406V2.85715ZM45.0713 50.1321H24.9075C24.1186 50.1321 23.479 50.7718 23.479 51.5606C23.479 52.3495 24.1188 52.9891 24.9075 52.9891H45.0713V55.0763C45.0713 56.2157 44.1443 57.1427 43.0048 57.1427H4.99481C3.85539 57.1427 2.92844 56.2158 2.92844 55.0763V31.3219C2.92756 29.6695 3.21769 28.03 3.78555 26.4783L9.28457 11.4286H38.715L44.2141 26.4783C44.7819 28.03 45.072 29.6695 45.0712 31.3219L45.0713 50.1321Z" fill="#F1CDB3"/>
<path d="M29.6167 33.805C29.1503 30.8772 26.6076 28.632 23.5503 28.632C20.493 28.632 17.9503 30.8772 17.4838 33.805C15.0669 34.7989 13.4855 37.2756 13.6897 39.9659C13.9174 42.9637 16.3504 45.392 19.3488 45.6148C20.5069 45.7011 21.657 45.4628 22.6749 44.9259C23.2313 44.6328 23.8695 44.6326 24.4254 44.926C25.3083 45.3908 26.2912 45.6331 27.2889 45.632C27.4427 45.632 27.5972 45.6263 27.7515 45.6149C30.7501 45.3923 33.183 42.9638 33.4108 39.966C33.6151 37.2756 32.0337 34.7989 29.6167 33.805ZM30.5619 39.7495C30.4403 41.35 29.1413 42.6466 27.5401 42.7655C26.9174 42.8126 26.3012 42.6851 25.7585 42.3986C25.0779 42.0394 24.32 41.8517 23.5504 41.8517C22.7809 41.8517 22.0229 42.0394 21.3424 42.3986C20.7997 42.6849 20.1847 42.8123 19.5606 42.7655C17.9595 42.6467 16.6604 41.3501 16.539 39.7495C16.4142 38.1062 17.5294 36.6124 19.1329 36.2746C19.4586 36.206 19.7501 36.0259 19.9571 35.7653C20.1642 35.5047 20.2737 35.18 20.2669 34.8473L20.2646 34.775C20.2646 32.9632 21.7385 31.4893 23.5503 31.4893C25.3621 31.4893 26.836 32.9632 26.836 34.7698L26.8338 34.8473C26.8269 35.1801 26.9364 35.5048 27.1434 35.7654C27.3505 36.026 27.6421 36.2061 27.9678 36.2746C29.5715 36.6124 30.6867 38.1062 30.5619 39.7495Z" fill="#F1CDB3"/>
<path d="M23.5504 25.7751C26.1106 25.7751 28.1933 23.6924 28.1933 21.1322C28.1933 18.572 26.1106 16.4893 23.5504 16.4893C20.9902 16.4893 18.9075 18.5721 18.9075 21.1322C18.9075 23.6923 20.9904 25.7751 23.5504 25.7751ZM23.5504 19.3465C24.5351 19.3465 25.3361 20.1475 25.3361 21.1322C25.3361 22.1169 24.5351 22.9179 23.5504 22.9179C22.5657 22.9179 21.7647 22.1169 21.7647 21.1322C21.7647 20.1475 22.5658 19.3465 23.5504 19.3465Z" fill="#F1CDB3"/>
<path d="M18.1933 26.6561C18.1933 24.0959 16.1105 22.0132 13.5504 22.0132C10.9904 22.0132 8.90758 24.096 8.90758 26.6561C8.90758 29.2162 10.9902 31.2989 13.5504 31.2989C16.1106 31.2989 18.1933 29.2162 18.1933 26.6561ZM13.5504 28.4418C12.5657 28.4418 11.7647 27.6408 11.7647 26.6561C11.7647 25.6714 12.5657 24.8704 13.5504 24.8704C14.5352 24.8704 15.3361 25.6714 15.3361 26.6561C15.3361 27.6408 14.535 28.4418 13.5504 28.4418Z" fill="#F1CDB3"/>
<path d="M33.5504 22.0131C30.9902 22.0131 28.9075 24.0959 28.9075 26.656C28.9075 29.216 30.9904 31.2988 33.5504 31.2988C36.1106 31.2988 38.1932 29.2162 38.1932 26.656C38.1932 24.0958 36.1106 22.0131 33.5504 22.0131ZM33.5504 28.4418C32.5656 28.4418 31.7647 27.6408 31.7647 26.6561C31.7647 25.6714 32.5658 24.8704 33.5504 24.8704C34.5351 24.8704 35.3361 25.6714 35.3361 26.6561C35.3361 27.6408 34.5351 28.4418 33.5504 28.4418Z" fill="#F1CDB3"/>
<path d="M18.6932 50.1322H18.3463C17.5574 50.1322 16.9178 50.7719 16.9178 51.5607C16.9178 52.3496 17.5575 52.9892 18.3463 52.9892H18.6932C19.4821 52.9892 20.1217 52.3495 20.1217 51.5607C20.1218 50.7719 19.4822 50.1322 18.6932 50.1322Z" fill="#F1CDB3"/>
</svg>
